<?xml version="1.0" encoding="UTF-8" standalone="no"?>
<!-- Generator: Adobe Illustrator 16.0.0, SVG Export Plug-In . SVG Version: 6.00 Build 0)  -->

<svg
   xmlns:dc="http://purl.org/dc/elements/1.1/"
   xmlns:cc="http://creativecommons.org/ns#"
   xmlns:rdf="http://www.w3.org/1999/02/22-rdf-syntax-ns#"
   xmlns:svg="http://www.w3.org/2000/svg"
   xmlns="http://www.w3.org/2000/svg"
   xmlns:sodipodi="http://sodipodi.sourceforge.net/DTD/sodipodi-0.dtd"
   xmlns:inkscape="http://www.inkscape.org/namespaces/inkscape"
   version="1.1"
   x="0px"
   y="0px"
   width="400px"
   height="400px"
   viewBox="0 0 400 400"
   enable-background="new 0 0 400 400"
   xml:space="preserve"
   id="svg2"
   inkscape:version="0.48.4 r9939"
   sodipodi:docname="Av4.svg"
   inkscape:export-filename="C:\Users\Bartek\Pictures\Av4\Av4-100.png"
   inkscape:export-xdpi="22.5"
   inkscape:export-ydpi="22.5"><metadata
   id="metadata16"><rdf:RDF><cc:Work
       rdf:about=""><dc:format>image/svg+xml</dc:format><dc:type
         rdf:resource="http://purl.org/dc/dcmitype/StillImage" /><dc:title></dc:title></cc:Work></rdf:RDF></metadata><defs
   id="defs14" /><sodipodi:namedview
   pagecolor="#ffffff"
   bordercolor="#666666"
   borderopacity="1"
   objecttolerance="10"
   gridtolerance="10"
   guidetolerance="10"
   inkscape:pageopacity="0"
   inkscape:pageshadow="2"
   inkscape:window-width="1920"
   inkscape:window-height="1017"
   id="namedview12"
   showgrid="false"
   inkscape:zoom="1.8207031"
   inkscape:cx="200"
   inkscape:cy="200"
   inkscape:window-x="-8"
   inkscape:window-y="-8"
   inkscape:window-maximized="1"
   inkscape:current-layer="svg2" />
<g
   id="Layer_1">
	<circle
   fill="#1259A0"
   cx="200"
   cy="200"
   r="180"
   id="circle5" />
</g>
<g
   id="Layer_2">
	<g
   id="g8">
		<path
   fill="#FFFFFF"
   d="M270.669,189.399c8.168,11.849,12.252,25.137,12.252,39.863c0,19.72-7.025,36.583-21.074,50.591    c-14.05,14.008-30.935,21.011-50.654,21.011H139.59v-71.602V198.54v-41.006v-10.156V96.216h51.163    c14.049,0,26.088,5.015,36.117,15.044s15.045,22.069,15.045,36.118c0,5.501-0.847,10.833-2.539,15.996    C252.071,168.875,262.502,177.55,270.669,189.399z M190.753,157.534c6.855,0,10.283-3.385,10.283-10.156    c0-6.855-3.428-10.283-10.283-10.283h-10.156v10.283v10.156H190.753z M190.753,198.54h-10.156v30.723v30.596h30.596    c8.463,0,15.699-2.983,21.709-8.95c6.009-5.967,9.014-13.182,9.014-21.646s-3.005-15.7-9.014-21.709    c-6.01-6.009-13.246-9.014-21.709-9.014H190.753z"
   id="path10" />
	</g>
</g>
</svg>